<svg width="62" height="61" viewBox="0 0 62 61" fill="none" xmlns="http://www.w3.org/2000/svg">
<g filter="url(#filter0_d_657_1996)">
<rect width="49.5" height="49.5" rx="20" transform="matrix(-1 0 0 1 55.75 2.25)" fill="#4D88FF"/>
</g>
<path d="M34.8672 36.2811C34.0129 36.2811 33.3203 35.5886 33.3203 34.7343C33.3203 33.8799 34.0129 33.1874 34.8672 33.1874C35.7215 33.1874 36.4141 33.8799 36.4141 34.7343C36.4141 35.5886 35.7215 36.2811 34.8672 36.2811Z" fill="white"/>
<path d="M24.0391 36.2811C23.1847 36.2811 22.4922 35.5886 22.4922 34.7343C22.4922 33.8799 23.1847 33.1874 24.0391 33.1874C24.8934 33.1874 25.5859 33.8799 25.5859 34.7343C25.5859 35.5886 24.8934 36.2811 24.0391 36.2811Z" fill="white"/>
<path d="M21.2934 20.4637C21.402 20.3308 21.5389 20.2238 21.6941 20.1504C21.8493 20.0769 22.0189 20.039 22.1906 20.0393H36.9028L37.1991 18.358C37.2307 18.179 37.3244 18.0167 37.4637 17.8999C37.603 17.783 37.7791 17.719 37.9609 17.719H41.0547C41.2598 17.719 41.4565 17.8005 41.6016 17.9455C41.7466 18.0906 41.8281 18.2873 41.8281 18.4924C41.8281 18.6976 41.7466 18.8943 41.6016 19.0393C41.4565 19.1844 41.2598 19.2659 41.0547 19.2659H38.6097L36.4025 31.7753C36.3709 31.9543 36.2772 32.1166 36.1379 32.2334C35.9985 32.3503 35.8225 32.4143 35.6406 32.4143H23.2656C23.0605 32.4143 22.8638 32.3328 22.7187 32.1878C22.5737 32.0427 22.4922 31.846 22.4922 31.6409C22.4922 31.4357 22.5737 31.239 22.7187 31.094C22.8638 30.9489 23.0605 30.8674 23.2656 30.8674H34.9919L35.2645 29.3206H23.5827C23.3145 29.3202 23.0546 29.2272 22.8471 29.0573C22.6396 28.8874 22.4971 28.651 22.4439 28.3881L21.0517 21.4271C21.0181 21.2587 21.0224 21.0849 21.0642 20.9183C21.106 20.7517 21.1843 20.5964 21.2934 20.4637Z" fill="white"/>
<defs>
<filter id="filter0_d_657_1996" x="0.75" y="0.25" width="60.5" height="60.5" filterUnits="userSpaceOnUse" color-interpolation-filters="sRGB">
<feFlood flood-opacity="0" result="BackgroundImageFix"/>
<feColorMatrix in="SourceAlpha" type="matrix" values="0 0 0 0 0 0 0 0 0 0 0 0 0 0 0 0 0 0 127 0" result="hardAlpha"/>
<feOffset dy="3.5"/>
<feGaussianBlur stdDeviation="2.75"/>
<feColorMatrix type="matrix" values="0 0 0 0 0 0 0 0 0 0 0 0 0 0 0 0 0 0 0.02 0"/>
<feBlend mode="normal" in2="BackgroundImageFix" result="effect1_dropShadow_657_1996"/>
<feBlend mode="normal" in="SourceGraphic" in2="effect1_dropShadow_657_1996" result="shape"/>
</filter>
</defs>
</svg>
