<svg width="32" height="32" viewBox="0 0 32 32" fill="none" xmlns="http://www.w3.org/2000/svg">
<path opacity="0.1" d="M16 0C7.16344 0 0 7.16344 0 16C0 24.8366 7.16344 32 16 32C24.8366 32 32 24.8366 32 16C31.9897 7.16771 24.8323 0.0102863 16 0Z" fill="white"/>
<path d="M25.2347 10.9335L16.108 23.3188C15.8904 23.6076 15.5658 23.7968 15.2073 23.844C14.8487 23.8911 14.4863 23.7922 14.2014 23.5695L7.68403 18.3588C7.10892 17.8986 7.0158 17.0593 7.47603 16.4842C7.93627 15.909 8.77559 15.8159 9.3507 16.2762L14.7854 20.6242L23.088 9.35616C23.3603 8.94761 23.835 8.72174 24.3238 8.76821C24.8125 8.81468 25.2362 9.12599 25.4266 9.57852C25.617 10.0311 25.5432 10.5516 25.2347 10.9335Z" fill="white"/>
</svg>
