<svg width="22" height="22" viewBox="0 0 22 22" fill="none" xmlns="http://www.w3.org/2000/svg">
<path d="M16.2783 16.2783C14.7114 17.4728 12.8033 18.1345 10.8333 18.1667C4.41667 18.1667 0.75 10.8333 0.75 10.8333C1.89023 8.70841 3.47171 6.85189 5.38833 5.38833M8.90833 3.72C9.53931 3.57231 10.1853 3.49848 10.8333 3.5C17.25 3.5 20.9167 10.8333 20.9167 10.8333C20.3602 11.8743 19.6966 12.8543 18.9367 13.7575M12.7767 12.7767C12.5249 13.0469 12.2213 13.2636 11.884 13.4139C11.5466 13.5642 11.1825 13.645 10.8133 13.6515C10.444 13.658 10.0772 13.5901 9.73481 13.4518C9.39239 13.3135 9.08133 13.1076 8.82019 12.8465C8.55906 12.5853 8.35319 12.2743 8.21488 11.9319C8.07657 11.5894 8.00865 11.2227 8.01516 10.8534C8.02168 10.4842 8.1025 10.12 8.2528 9.78269C8.40311 9.44536 8.61982 9.14176 8.89 8.89M0.75 0.75L20.9167 20.9167" stroke="white" stroke-width="1.5" stroke-linecap="round" stroke-linejoin="round"/>
</svg>
