<svg width="50" height="45" viewBox="0 0 50 45" fill="none" xmlns="http://www.w3.org/2000/svg">
<path d="M48.3828 10.7681L42.1091 3.14063C41.3376 2.17 40.3202 1.37882 39.1411 0.832644C37.962 0.28647 36.6552 0.00103823 35.3291 3.30448e-06H14.6808C13.3611 -0.00111138 12.06 0.279796 10.8845 0.819609C9.70906 1.35942 8.69285 2.14271 7.91952 3.105L1.53332 10.7869C0.493531 12.1063 -0.043449 13.6933 0.0027499 15.3102C0.0489488 16.9272 0.675841 18.4873 1.7896 19.7569L20.1085 42.8719C20.6923 43.5371 21.4364 44.0743 22.2846 44.443C23.1328 44.8116 24.063 45.0021 25.0049 45C25.9631 44.9983 26.908 44.7987 27.767 44.4168C28.6259 44.0349 29.3761 43.4807 29.9597 42.7969L48.1328 19.9387C49.2964 18.6506 49.9522 17.0514 49.9975 15.3918C50.0427 13.7323 49.4748 12.1061 48.3828 10.7681ZM38.74 5.34563L45.0282 12.9919C45.0616 13.0331 45.0699 13.0819 45.1032 13.125H34.9103L31.935 3.75H35.3291C35.9979 3.75187 36.6564 3.89768 37.2498 4.17526C37.8431 4.45284 38.3541 4.85413 38.74 5.34563ZM25.0049 35.8462L19.3793 16.875H30.6306L25.0049 35.8462ZM19.4334 13.125L22.4088 3.75H27.6011L30.5765 13.125H19.4334ZM11.2887 5.31938C11.6753 4.83448 12.1845 4.43928 12.7743 4.16641C13.3641 3.89353 14.0176 3.7508 14.6808 3.75H18.0749L15.0996 13.125H4.83164C4.86081 13.0837 4.86914 13.0331 4.90248 12.9937L11.2887 5.31938ZM5.1025 17.4844C4.95206 17.2931 4.82295 17.089 4.71704 16.875H15.0704L21.3087 37.9312L5.1025 17.4844ZM28.695 37.95L34.9457 16.875H45.3345C45.2003 17.1549 45.0304 17.4198 44.8282 17.6644L28.695 37.95Z" fill="white"/>
</svg>
