<svg width="14" height="14" viewBox="0 0 14 14" fill="none" xmlns="http://www.w3.org/2000/svg">
<path d="M13 10.2308V6.53847C13 5.06958 12.3679 3.66085 11.2426 2.62218C10.1174 1.58352 8.5913 1 7 1C5.4087 1 3.88258 1.58352 2.75736 2.62218C1.63214 3.66085 1 5.06958 1 6.53847V10.2308" stroke="#FF7344" stroke-width="2" stroke-linecap="round" stroke-linejoin="round"/>
<path d="M1 10.8462C1 11.1726 1.14048 11.4856 1.39052 11.7164C1.64057 11.9473 1.97971 12.0769 2.33333 12.0769H3C3.35362 12.0769 3.69276 11.9473 3.94281 11.7164C4.19286 11.4856 4.33333 11.1726 4.33333 10.8462V9C4.33333 8.67358 4.19286 8.36053 3.94281 8.12971C3.69276 7.8989 3.35362 7.76923 3 7.76923H1V10.8462ZM13 10.8462C13 11.1726 12.8595 11.4856 12.6095 11.7164C12.3594 11.9473 12.0203 12.0769 11.6667 12.0769H11C10.6464 12.0769 10.3072 11.9473 10.0572 11.7164C9.80714 11.4856 9.66667 11.1726 9.66667 10.8462V9C9.66667 8.67358 9.80714 8.36053 10.0572 8.12971C10.3072 7.8989 10.6464 7.76923 11 7.76923H13V10.8462Z" stroke="#FF7344" stroke-width="2" stroke-linecap="round" stroke-linejoin="round"/>
</svg>
