<svg width="20" height="19" viewBox="0 0 20 19" fill="none" xmlns="http://www.w3.org/2000/svg">
<g opacity="0.8">
<path d="M18.9961 15.1668V9.50014C18.9961 7.2458 18.0479 5.08378 16.3601 3.48972C14.6722 1.89566 12.383 1.00012 9.99609 1.00012C7.60915 1.00012 5.31996 1.89566 3.63213 3.48972C1.94431 5.08378 0.996094 7.2458 0.996094 9.50014V15.1668" stroke="white" stroke-width="1.5" stroke-linecap="round" stroke-linejoin="round"/>
<path d="M0.996094 16.1113C0.996094 16.6122 1.20681 17.0927 1.58188 17.4469C1.95695 17.8012 2.46566 18.0002 2.99609 18.0002H3.99609C4.52653 18.0002 5.03523 17.8012 5.41031 17.4469C5.78538 17.0927 5.99609 16.6122 5.99609 16.1113V13.2779C5.99609 12.777 5.78538 12.2965 5.41031 11.9423C5.03523 11.588 4.52653 11.389 3.99609 11.389H0.996094V16.1113ZM18.9961 16.1113C18.9961 16.6122 18.7854 17.0927 18.4103 17.4469C18.0352 17.8012 17.5265 18.0002 16.9961 18.0002H15.9961C15.4657 18.0002 14.957 17.8012 14.5819 17.4469C14.2068 17.0927 13.9961 16.6122 13.9961 16.1113V13.2779C13.9961 12.777 14.2068 12.2965 14.5819 11.9423C14.957 11.588 15.4657 11.389 15.9961 11.389H18.9961V16.1113Z" stroke="white" stroke-width="1.5" stroke-linecap="round" stroke-linejoin="round"/>
</g>
</svg>
