<svg width="24" height="24" viewBox="0 0 24 24" fill="none" xmlns="http://www.w3.org/2000/svg">
<path d="M17.9577 6.0415H17.9685M6.58268 1.1665H17.416C20.4076 1.1665 22.8327 3.59163 22.8327 6.58317V17.4165C22.8327 20.408 20.4076 22.8332 17.416 22.8332H6.58268C3.59114 22.8332 1.16602 20.408 1.16602 17.4165V6.58317C1.16602 3.59163 3.59114 1.1665 6.58268 1.1665ZM16.3327 11.3173C16.4664 12.2189 16.3124 13.1397 15.8926 13.9488C15.4728 14.7578 14.8086 15.4139 13.9944 15.8237C13.1803 16.2334 12.2577 16.3761 11.3578 16.2313C10.4579 16.0865 9.62659 15.6616 8.98209 15.0171C8.33759 14.3726 7.91273 13.5413 7.76792 12.6414C7.62312 11.7415 7.76575 10.8189 8.17554 10.0047C8.58532 9.1906 9.24138 8.52639 10.0504 8.1066C10.8594 7.68681 11.7802 7.53281 12.6818 7.6665C13.6015 7.80288 14.4529 8.23142 15.1104 8.88884C15.7678 9.54625 16.1963 10.3977 16.3327 11.3173Z" stroke="white" stroke-width="2" stroke-linecap="round" stroke-linejoin="round"/>
</svg>
