<svg width="18" height="18" viewBox="0 0 18 18" fill="none" xmlns="http://www.w3.org/2000/svg">
<path opacity="0.8" d="M6.33333 14.3337V2.77814L17 1.00037V12.5559M6.33333 14.3337C6.33333 15.8065 5.13943 17.0004 3.66667 17.0004C2.19391 17.0004 1 15.8065 1 14.3337C1 12.8609 2.19391 11.667 3.66667 11.667C5.13943 11.667 6.33333 12.8609 6.33333 14.3337ZM17 12.5559C17 14.0287 15.8061 15.2226 14.3333 15.2226C12.8606 15.2226 11.6667 14.0287 11.6667 12.5559C11.6667 11.0832 12.8606 9.88926 14.3333 9.88926C15.8061 9.88926 17 11.0832 17 12.5559Z" stroke="#B020D5" stroke-width="1.5" stroke-linecap="round" stroke-linejoin="round"/>
</svg>
