<svg width="12" height="12" viewBox="0 0 12 12" fill="none" xmlns="http://www.w3.org/2000/svg">
<path d="M4.33333 9.33339V2.11117L11 1.00006V8.22228M4.33333 9.33339C4.33333 10.2539 3.58714 11.0001 2.66667 11.0001C1.74619 11.0001 1 10.2539 1 9.33339C1 8.41292 1.74619 7.66673 2.66667 7.66673C3.58714 7.66673 4.33333 8.41292 4.33333 9.33339ZM11 8.22228C11 9.14276 10.2538 9.88895 9.33333 9.88895C8.41286 9.88895 7.66667 9.14276 7.66667 8.22228C7.66667 7.30181 8.41286 6.55562 9.33333 6.55562C10.2538 6.55562 11 7.30181 11 8.22228Z" stroke="#B020D5" stroke-width="2" stroke-linecap="round" stroke-linejoin="round"/>
</svg>
