<svg width="62" height="61" viewBox="0 0 62 61" fill="none" xmlns="http://www.w3.org/2000/svg">
<g filter="url(#filter0_d_657_1991)">
<rect x="6.25" y="2.25" width="49.5" height="49.5" rx="20" fill="#4D88FF"/>
</g>
<path d="M25.3105 15.9088H29.7578C29.806 15.9088 29.8527 15.9275 29.8867 15.9615C29.9208 15.9956 29.9395 16.0423 29.9395 16.0905V22.858C29.9395 23.4765 30.1847 24.0701 30.6221 24.5074C31.0594 24.9448 31.653 25.1901 32.2715 25.1901H39.0391C39.0872 25.1901 39.1339 25.2087 39.168 25.2428C39.202 25.2769 39.2207 25.3235 39.2207 25.3717V34.4596C39.2207 35.277 38.8964 36.0613 38.3184 36.6393C37.7404 37.2173 36.9561 37.5416 36.1387 37.5416H25.3105C24.4931 37.5416 23.7089 37.2173 23.1309 36.6393C22.5529 36.0613 22.2285 35.277 22.2285 34.4596V18.9908C22.2285 18.1734 22.5529 17.3891 23.1309 16.8112C23.7089 16.2332 24.4931 15.9088 25.3105 15.9088ZM26.8574 31.3541C26.6492 31.3541 26.449 31.4364 26.3018 31.5836C26.1545 31.7309 26.0723 31.931 26.0723 32.1393C26.0723 32.3475 26.1545 32.5477 26.3018 32.6949C26.449 32.8422 26.6492 32.9244 26.8574 32.9244H34.5918C34.8 32.9244 35.0002 32.8422 35.1475 32.6949C35.2947 32.5477 35.377 32.3475 35.377 32.1393C35.377 31.931 35.2947 31.7309 35.1475 31.5836C35.0002 31.4364 34.8 31.3541 34.5918 31.3541H26.8574ZM26.8574 27.4869C26.6492 27.4869 26.449 27.5692 26.3018 27.7164C26.1545 27.8637 26.0723 28.0639 26.0723 28.2721C26.0723 28.4803 26.1545 28.6805 26.3018 28.8278C26.449 28.975 26.6492 29.0573 26.8574 29.0573H34.5918C34.8 29.0573 35.0002 28.975 35.1475 28.8278C35.2947 28.6805 35.377 28.4803 35.377 28.2721C35.377 28.0639 35.2947 27.8637 35.1475 27.7164C35.0002 27.5692 34.8 27.4869 34.5918 27.4869H26.8574Z" fill="white" stroke="#4D88FF" stroke-width="0.0234375"/>
<path d="M31.6113 16.5017C31.6275 16.505 31.6425 16.5126 31.6543 16.5242L38.6064 23.4763C38.6181 23.4881 38.6266 23.503 38.6299 23.5193C38.6331 23.5355 38.6312 23.5528 38.625 23.5681C38.6187 23.5835 38.6075 23.5969 38.5938 23.6062C38.58 23.6155 38.5635 23.6207 38.5469 23.6208H32.2715C32.0695 23.6208 31.8753 23.541 31.7324 23.3982C31.5896 23.2554 31.5098 23.0611 31.5098 22.8591V16.5847C31.5098 16.568 31.5151 16.5508 31.5244 16.5369C31.5337 16.5232 31.5472 16.5129 31.5625 16.5066C31.578 16.5002 31.5949 16.4985 31.6113 16.5017Z" fill="white" stroke="#4D88FF" stroke-width="0.0234375"/>
<defs>
<filter id="filter0_d_657_1991" x="0.75" y="0.25" width="60.5" height="60.5" filterUnits="userSpaceOnUse" color-interpolation-filters="sRGB">
<feFlood flood-opacity="0" result="BackgroundImageFix"/>
<feColorMatrix in="SourceAlpha" type="matrix" values="0 0 0 0 0 0 0 0 0 0 0 0 0 0 0 0 0 0 127 0" result="hardAlpha"/>
<feOffset dy="3.5"/>
<feGaussianBlur stdDeviation="2.75"/>
<feColorMatrix type="matrix" values="0 0 0 0 0 0 0 0 0 0 0 0 0 0 0 0 0 0 0.02 0"/>
<feBlend mode="normal" in2="BackgroundImageFix" result="effect1_dropShadow_657_1991"/>
<feBlend mode="normal" in="SourceGraphic" in2="effect1_dropShadow_657_1991" result="shape"/>
</filter>
</defs>
</svg>
