<svg width="20" height="20" viewBox="0 0 20 20" fill="none" xmlns="http://www.w3.org/2000/svg">
<path d="M14.5 1.50939C14.7408 1.26863 15.0266 1.07766 15.3411 0.947359C15.6557 0.817063 15.9929 0.75 16.3333 0.75C16.6738 0.75 17.011 0.817063 17.3255 0.947359C17.6401 1.07766 17.9259 1.26863 18.1667 1.50939C18.4074 1.75015 18.5984 2.03597 18.7287 2.35053C18.859 2.6651 18.9261 3.00224 18.9261 3.34272C18.9261 3.68321 18.859 4.02035 18.7287 4.33492C18.5984 4.64948 18.4074 4.9353 18.1667 5.17606L5.79167 17.5511L0.75 18.9261L2.125 13.8844L14.5 1.50939Z" stroke="white" stroke-width="1.5" stroke-linecap="round" stroke-linejoin="round"/>
</svg>
