<svg width="23" height="23" viewBox="0 0 23 23" fill="none" xmlns="http://www.w3.org/2000/svg">
<path d="M21.916 16.6248V19.7498C21.9172 20.0399 21.8578 20.327 21.7415 20.5928C21.6253 20.8587 21.4549 21.0973 21.2411 21.2934C21.0273 21.4895 20.7749 21.6388 20.5001 21.7318C20.2253 21.8247 19.9341 21.8592 19.6452 21.8331C16.4398 21.4848 13.3608 20.3895 10.6556 18.6352C8.13874 17.0359 6.0049 14.902 4.40559 12.3852C2.64515 9.6677 1.54959 6.57373 1.20767 3.35394C1.18164 3.06589 1.21588 2.77557 1.30819 2.50147C1.40051 2.22737 1.54889 1.97549 1.74389 1.76188C1.93888 1.54827 2.17622 1.3776 2.44079 1.26074C2.70536 1.14387 2.99136 1.08338 3.28059 1.08311H6.40559C6.91112 1.07813 7.40121 1.25715 7.78451 1.58679C8.16781 1.91643 8.41817 2.3742 8.48892 2.87478C8.62082 3.87484 8.86543 4.85678 9.21809 5.80186C9.35824 6.1747 9.38857 6.57989 9.30549 6.96944C9.22241 7.35899 9.02941 7.71656 8.74934 7.99978L7.42642 9.32269C8.90929 11.9306 11.0686 14.0898 13.6764 15.5727L14.9993 14.2498C15.2826 13.9697 15.6401 13.7767 16.0297 13.6936C16.4192 13.6105 16.8244 13.6409 17.1973 13.781C18.1423 14.1337 19.1243 14.3783 20.1243 14.5102C20.6303 14.5816 21.0925 14.8364 21.4228 15.2263C21.7532 15.6162 21.9287 16.1139 21.916 16.6248Z" stroke="white" stroke-width="1.5" stroke-linecap="round" stroke-linejoin="round"/>
</svg>
