<svg width="49" height="46" viewBox="0 0 49 46" fill="none" xmlns="http://www.w3.org/2000/svg">
<path d="M2.36894 19.1281C1.6517 18.4789 2.04131 17.3052 3.01144 17.1927L16.7578 15.5968C17.1532 15.551 17.4966 15.3079 17.6634 14.9541L23.4614 2.65128C23.8706 1.78302 25.1317 1.78285 25.5409 2.65111L31.3389 14.9538C31.5057 15.3077 31.8469 15.5514 32.2423 15.5972L45.9893 17.1927C46.9595 17.3052 47.348 18.4792 46.6307 19.1284L36.4689 28.3278C36.1765 28.5924 36.0464 28.9862 36.124 29.3684L38.8209 42.6571C39.0113 43.5949 37.9915 44.3216 37.1391 43.8545L25.0602 37.2353C24.7128 37.0449 24.2907 37.0458 23.9432 37.2361L11.8631 43.8528C11.0106 44.3199 9.98899 43.5949 10.1794 42.657L12.8768 29.3693C12.9543 28.9871 12.8245 28.5923 12.5322 28.3277L2.36894 19.1281Z" stroke="white" stroke-width="4" stroke-linecap="round" stroke-linejoin="round"/>
</svg>
