<svg width="20" height="21" viewBox="0 0 20 21" fill="none" xmlns="http://www.w3.org/2000/svg">
<path opacity="0.8" d="M5.5 1H4.60022C3.3401 1 2.70957 1 2.22827 1.25886C1.80491 1.48656 1.46095 1.84962 1.24524 2.29651C1 2.80455 1 3.47011 1 4.80023V16.2002C1 17.5304 1 18.1951 1.24524 18.7031C1.46095 19.15 1.80491 19.5137 2.22827 19.7414C2.7091 20 3.33887 20 4.59652 20H5.5M5.5 1H15.4002C16.6603 1 17.2895 1 17.7708 1.25886C18.1942 1.48656 18.5393 1.84962 18.755 2.29651C19 2.80405 19 3.46881 19 4.79633V16.2042C19 17.5318 19 18.1956 18.755 18.7031C18.5393 19.15 18.1942 19.5137 17.7708 19.7414C17.29 20 16.6611 20 15.4035 20H5.5M5.5 1V20M10 9.3125H14.5M10 5.75H14.5" stroke="white" stroke-width="1.5" stroke-linecap="round" stroke-linejoin="round"/>
</svg>
