<svg width="43" height="41" viewBox="0 0 43 41" fill="none" xmlns="http://www.w3.org/2000/svg">
<g filter="url(#filter0_d_442_584)">
<path d="M30.3855 14.068L28.0015 11.1865C27.7083 10.8198 27.3217 10.5209 26.8736 10.3146C26.4256 10.1082 25.929 10.0004 25.4251 10H17.5787C17.0772 9.99958 16.5828 10.1057 16.1361 10.3096C15.6894 10.5136 15.3033 10.8095 15.0094 11.173L12.5827 14.075C12.1875 14.5735 11.9835 15.173 12.001 15.7839C12.0186 16.3947 12.2568 16.9841 12.68 17.4637L19.6412 26.196C19.8631 26.4473 20.1458 26.6503 20.4681 26.7896C20.7905 26.9288 21.1439 27.0008 21.5019 27C21.866 26.9993 22.225 26.924 22.5514 26.7797C22.8779 26.6354 23.1629 26.426 23.3847 26.1677L30.2905 17.5324C30.7326 17.0458 30.9819 16.4416 30.999 15.8147C31.0162 15.1877 30.8004 14.5734 30.3855 14.068ZM26.7212 12.0195L29.1107 14.908C29.1234 14.9236 29.1266 14.942 29.1392 14.9583H25.2659L24.1353 11.4167H25.4251C25.6792 11.4174 25.9294 11.4725 26.1549 11.5773C26.3804 11.6822 26.5745 11.8338 26.7212 12.0195ZM21.5019 23.5419L19.3641 16.375H23.6396L21.5019 23.5419ZM19.3847 14.9583L20.5153 11.4167H22.4884L23.6191 14.9583H19.3847ZM16.2897 12.0095C16.4366 11.8264 16.6301 11.6771 16.8542 11.574C17.0784 11.4709 17.3267 11.417 17.5787 11.4167H18.8685L17.7378 14.9583H13.836C13.8471 14.9427 13.8503 14.9236 13.8629 14.9087L16.2897 12.0095ZM13.939 16.6052C13.8818 16.533 13.8327 16.4559 13.7925 16.375H17.7267L20.0973 24.3296L13.939 16.6052ZM22.9041 24.3367L25.2794 16.375H29.2271C29.1761 16.4807 29.1115 16.5808 29.0347 16.6732L22.9041 24.3367Z" fill="white"/>
</g>
<defs>
<filter id="filter0_d_442_584" x="0.5" y="0.5" width="42" height="40" filterUnits="userSpaceOnUse" color-interpolation-filters="sRGB">
<feFlood flood-opacity="0" result="BackgroundImageFix"/>
<feColorMatrix in="SourceAlpha" type="matrix" values="0 0 0 0 0 0 0 0 0 0 0 0 0 0 0 0 0 0 127 0" result="hardAlpha"/>
<feOffset dy="2"/>
<feGaussianBlur stdDeviation="5.75"/>
<feComposite in2="hardAlpha" operator="out"/>
<feColorMatrix type="matrix" values="0 0 0 0 0.302885 0 0 0 0 0.535256 0 0 0 0 1 0 0 0 1 0"/>
<feBlend mode="normal" in2="BackgroundImageFix" result="effect1_dropShadow_442_584"/>
<feBlend mode="normal" in="SourceGraphic" in2="effect1_dropShadow_442_584" result="shape"/>
</filter>
</defs>
</svg>
