<svg width="62" height="61" viewBox="0 0 62 61" fill="none" xmlns="http://www.w3.org/2000/svg">
<g filter="url(#filter0_d_657_2015)">
<rect x="6.25" y="2.25" width="49.5" height="49.5" rx="20" fill="#4D88FF"/>
</g>
<path d="M23.2403 19.65H38.709C38.8897 19.6499 39.0702 19.6614 39.2495 19.6843C39.1887 19.2578 39.0422 18.8481 38.8188 18.4798C38.5955 18.1115 38.2998 17.7922 37.9497 17.5412C37.5996 17.2903 37.2022 17.1128 36.7817 17.0195C36.3611 16.9263 35.926 16.9191 35.5027 16.9986L22.7811 19.1705H22.7666C21.968 19.3232 21.2579 19.775 20.7812 20.4336C21.4994 19.9228 22.359 19.6489 23.2403 19.65Z" fill="white"/>
<path d="M38.7109 20.8123H23.2422C22.4219 20.8132 21.6356 21.1394 21.0556 21.7194C20.4756 22.2994 20.1493 23.0858 20.1484 23.9061V33.1873C20.1493 34.0076 20.4756 34.7939 21.0556 35.3739C21.6356 35.9539 22.4219 36.2802 23.2422 36.2811H38.7109C39.5312 36.2802 40.3176 35.9539 40.8976 35.3739C41.4775 34.7939 41.8038 34.0076 41.8047 33.1873V23.9061C41.8038 23.0858 41.4775 22.2994 40.8976 21.7194C40.3176 21.1394 39.5312 20.8132 38.7109 20.8123ZM36.4148 30.0936C36.1088 30.0936 35.8098 30.0028 35.5554 29.8329C35.301 29.6629 35.1027 29.4213 34.9857 29.1387C34.8686 28.856 34.838 28.545 34.8976 28.2449C34.9573 27.9448 35.1046 27.6692 35.321 27.4529C35.5373 27.2365 35.8129 27.0892 36.113 27.0295C36.4131 26.9699 36.7241 27.0005 37.0068 27.1176C37.2894 27.2346 37.531 27.4329 37.701 27.6873C37.8709 27.9417 37.9617 28.2407 37.9617 28.5467C37.9617 28.9569 37.7987 29.3504 37.5086 29.6405C37.2185 29.9306 36.825 30.0936 36.4148 30.0936Z" fill="white"/>
<path d="M20.1719 27.1665V22.3567C20.1719 21.3092 20.752 19.553 22.7653 19.1725C24.4741 18.8521 26.166 18.8521 26.166 18.8521C26.166 18.8521 27.2778 19.6255 26.3594 19.6255C25.4409 19.6255 25.4651 20.8098 26.3594 20.8098C27.2537 20.8098 26.3594 21.9458 26.3594 21.9458L22.7581 26.0305L20.1719 27.1665Z" fill="white"/>
<defs>
<filter id="filter0_d_657_2015" x="0.75" y="0.25" width="60.5" height="60.5" filterUnits="userSpaceOnUse" color-interpolation-filters="sRGB">
<feFlood flood-opacity="0" result="BackgroundImageFix"/>
<feColorMatrix in="SourceAlpha" type="matrix" values="0 0 0 0 0 0 0 0 0 0 0 0 0 0 0 0 0 0 127 0" result="hardAlpha"/>
<feOffset dy="3.5"/>
<feGaussianBlur stdDeviation="2.75"/>
<feColorMatrix type="matrix" values="0 0 0 0 0 0 0 0 0 0 0 0 0 0 0 0 0 0 0.02 0"/>
<feBlend mode="normal" in2="BackgroundImageFix" result="effect1_dropShadow_657_2015"/>
<feBlend mode="normal" in="SourceGraphic" in2="effect1_dropShadow_657_2015" result="shape"/>
</filter>
</defs>
</svg>
