<svg width="18" height="18" viewBox="0 0 18 18" fill="none" xmlns="http://www.w3.org/2000/svg">
<path d="M6.25 14.5V2.58333L17.25 0.75V12.6667M6.25 14.5C6.25 16.0188 5.01878 17.25 3.5 17.25C1.98122 17.25 0.75 16.0188 0.75 14.5C0.75 12.9812 1.98122 11.75 3.5 11.75C5.01878 11.75 6.25 12.9812 6.25 14.5ZM17.25 12.6667C17.25 14.1854 16.0188 15.4167 14.5 15.4167C12.9812 15.4167 11.75 14.1854 11.75 12.6667C11.75 11.1479 12.9812 9.91667 14.5 9.91667C16.0188 9.91667 17.25 11.1479 17.25 12.6667Z" stroke="white" stroke-width="1.5" stroke-linecap="round" stroke-linejoin="round"/>
</svg>
